<svg width="24" height="24" viewBox="0 0 24 24" fill="none" xmlns="http://www.w3.org/2000/svg">
<g id="gears 1" clip-path="url(#clip0_25_133)">
<path id="Vector" d="M22.73 19.05L21.75 18.5C21.9 18.02 22.01 17.52 22.01 17C22.01 16.48 21.91 15.97 21.75 15.5L22.73 14.95C23.21 14.68 23.38 14.07 23.12 13.59C22.85 13.11 22.24 12.93 21.76 13.2L20.78 13.75C20.07 12.93 19.11 12.33 18.01 12.1V11C18.01 10.45 17.56 10 17.01 10C16.46 10 16.01 10.45 16.01 11V12.1C14.91 12.32 13.95 12.93 13.24 13.75L12.26 13.2C11.78 12.93 11.17 13.1 10.9 13.59C10.63 14.07 10.8 14.68 11.29 14.95L12.27 15.5C12.12 15.98 12.01 16.48 12.01 17C12.01 17.52 12.11 18.03 12.27 18.5L11.29 19.05C10.81 19.32 10.64 19.93 10.9 20.41C11.08 20.74 11.42 20.92 11.77 20.92C11.94 20.92 12.1 20.88 12.26 20.79L13.24 20.24C13.95 21.06 14.91 21.66 16.01 21.89V22.99C16.01 23.54 16.46 23.99 17.01 23.99C17.56 23.99 18.01 23.54 18.01 22.99V21.89C19.11 21.67 20.07 21.06 20.78 20.24L21.76 20.79C21.91 20.88 22.08 20.92 22.25 20.92C22.6 20.92 22.94 20.74 23.12 20.41C23.39 19.93 23.22 19.32 22.73 19.05ZM17 20C15.35 20 14 18.65 14 17C14 15.35 15.35 14 17 14C18.65 14 20 15.35 20 17C20 18.65 18.65 20 17 20ZM10.77 10.25L11.75 10.8C11.9 10.89 12.07 10.93 12.24 10.93C12.59 10.93 12.93 10.75 13.11 10.42C13.38 9.94 13.21 9.33 12.72 9.06L11.74 8.51C11.89 8.03 12 7.53 12 7.01C12 6.49 11.9 5.98 11.74 5.51L12.72 4.96C13.2 4.69 13.37 4.08 13.11 3.6C12.84 3.12 12.23 2.94 11.75 3.21L10.77 3.76C10.06 2.94 9.1 2.34 8 2.11V1C8 0.45 7.55 0 7 0C6.45 0 6 0.45 6 1V2.1C4.9 2.32 3.94 2.93 3.23 3.75L2.25 3.2C1.77 2.93 1.16 3.1 0.889997 3.59C0.619997 4.07 0.789997 4.68 1.28 4.95L2.26 5.5C2.11 5.98 2 6.48 2 7C2 7.52 2.1 8.03 2.26 8.5L1.28 9.05C0.799997 9.32 0.629997 9.93 0.889997 10.41C1.07 10.74 1.41 10.92 1.76 10.92C1.93 10.92 2.09 10.88 2.25 10.79L3.23 10.24C3.94 11.06 4.9 11.66 6 11.89V12.99C6 13.54 6.45 13.99 7 13.99C7.55 13.99 8 13.54 8 12.99V11.89C9.1 11.67 10.06 11.06 10.77 10.24V10.25ZM7 10C5.35 10 4 8.65 4 7C4 5.35 5.35 4 7 4C8.65 4 10 5.35 10 7C10 8.65 8.65 10 7 10Z" fill="#C86FC9"/>
</g>
<defs>
<clipPath id="clip0_25_133">
<rect width="24" height="24" fill="white"/>
</clipPath>
</defs>
</svg>
