<svg width="24" height="24" viewBox="0 0 24 24" fill="none" xmlns="http://www.w3.org/2000/svg">
<g id="star 1" clip-path="url(#clip0_25_140)">
<path id="Vector" d="M23.836 8.79395C23.6314 8.14285 23.2228 7.57487 22.6705 7.17399C22.1181 6.77311 21.4514 6.56062 20.769 6.56796H16.4L15.073 2.43195C14.8643 1.78091 14.4543 1.21297 13.902 0.81002C13.3497 0.407071 12.6837 0.189941 12 0.189941C11.3163 0.189941 10.6503 0.407071 10.098 0.81002C9.54573 1.21297 9.13568 1.78091 8.927 2.43195L7.6 6.56796H3.231C2.55075 6.56892 1.88819 6.78484 1.33798 7.18486C0.78777 7.58488 0.378043 8.14854 0.167324 8.79534C-0.0433958 9.44214 -0.0443284 10.139 0.164659 10.7863C0.373646 11.4337 0.781863 11.9985 1.331 12.4L4.887 15L3.535 19.187C3.31651 19.8363 3.31375 20.539 3.52711 21.19C3.74048 21.8411 4.15855 22.4058 4.719 22.8C5.26985 23.2067 5.93739 23.4247 6.62216 23.4212C7.30692 23.4178 7.97224 23.1932 8.519 22.781L12 20.219L15.482 22.778C16.0319 23.1824 16.6958 23.4021 17.3784 23.4054C18.0609 23.4087 18.727 23.1955 19.2808 22.7965C19.8345 22.3974 20.2475 21.833 20.4603 21.1844C20.6731 20.5359 20.6747 19.8365 20.465 19.187L19.113 15L22.673 12.4C23.2284 12.0035 23.6414 11.4388 23.8509 10.7893C24.0603 10.1398 24.0551 9.44021 23.836 8.79395ZM21.493 10.785L17.349 13.814C17.1788 13.9381 17.0521 14.1129 16.9871 14.3133C16.9221 14.5137 16.9221 14.7295 16.987 14.93L18.562 19.8C18.6417 20.047 18.641 20.3129 18.5601 20.5595C18.4791 20.8061 18.322 21.0206 18.1114 21.1723C17.9008 21.324 17.6476 21.405 17.388 21.4037C17.1285 21.4024 16.876 21.3188 16.667 21.165L12.592 18.165C12.4204 18.0389 12.213 17.9709 12 17.9709C11.787 17.9709 11.5796 18.0389 11.408 18.165L7.333 21.165C7.12408 21.3209 6.87094 21.4062 6.61027 21.4086C6.34959 21.4109 6.09494 21.3302 5.88323 21.1781C5.67152 21.026 5.51375 20.8104 5.4328 20.5626C5.35185 20.3148 5.35192 20.0477 5.433 19.8L7.013 14.93C7.07792 14.7295 7.07787 14.5137 7.01286 14.3133C6.94786 14.1129 6.82121 13.9381 6.651 13.814L2.507 10.785C2.29831 10.6322 2.14324 10.4173 2.06394 10.1711C1.98465 9.9249 1.98519 9.65993 2.06549 9.41405C2.14578 9.16817 2.30173 8.95396 2.51104 8.80201C2.72036 8.65005 2.97235 8.56814 3.231 8.56796H8.331C8.54272 8.56795 8.74897 8.50075 8.92005 8.37603C9.09113 8.25131 9.21822 8.07552 9.283 7.87396L10.833 3.04295C10.9126 2.79574 11.0685 2.58015 11.2784 2.4272C11.4883 2.27426 11.7413 2.19186 12.001 2.19186C12.2607 2.19186 12.5137 2.27426 12.7236 2.4272C12.9335 2.58015 13.0894 2.79574 13.169 3.04295L14.719 7.87396C14.7838 8.07552 14.9109 8.25131 15.082 8.37603C15.253 8.50075 15.4593 8.56795 15.671 8.56796H20.771C21.0297 8.56814 21.2816 8.65005 21.491 8.80201C21.7003 8.95396 21.8562 9.16817 21.9365 9.41405C22.0168 9.65993 22.0174 9.9249 21.9381 10.1711C21.8588 10.4173 21.7037 10.6322 21.495 10.785H21.493Z" fill="#C86FC9"/>
</g>
<defs>
<clipPath id="clip0_25_140">
<rect width="24" height="24" fill="white"/>
</clipPath>
</defs>
</svg>
